<?xml version="1.0" encoding="UTF-8"?>
<svg xmlns="http://www.w3.org/2000/svg" xmlns:xlink="http://www.w3.org/1999/xlink" width="1000pt" height="1000pt" viewBox="0 0 1000 1000" version="1.1">
<g id="surface1">
<path style="fill:none;stroke-width:0.03;stroke-linecap:butt;stroke-linejoin:miter;stroke:rgb(10%,10%,10%);stroke-opacity:1;stroke-miterlimit:10;" d="M 4 3.080352 L 4.010859 2.965547 M 4.010859 2.965547 L 3.72832 2.654961 M 3.72832 2.654961 L 3.295937 2.755742 M 3.295937 2.755742 L 3.221289 2.692617 M 3.221289 2.692617 L 3.164531 2.35332 M 3.164531 2.35332 L 3.454727 2.095039 M 3.454727 2.095039 L 3.401797 1.992969 M 3.401797 1.992969 L 3.165195 1.920937 M 3.165195 1.920937 L 3.105469 2.017227 M 3.105469 2.017227 L 3.155977 2.105547 M 3.155977 2.105547 L 2.955352 2.251016 M 2.955352 2.251016 L 3.012773 2.604609 M 3.012773 2.604609 L 2.757656 2.910703 M 2.757656 2.910703 L 2.840547 2.65918 M 2.840547 2.65918 L 2.688125 2.304844 M 2.688125 2.304844 L 2.589609 2.248711 M 2.589609 2.248711 L 2.369883 2.344531 M 2.369883 2.344531 L 2.177305 2.297188 M 2.177305 2.297188 L 2.051016 2.426016 M 2.051016 2.426016 L 2.253828 2.623711 M 2.253828 2.623711 L 2.511914 2.555117 M 2.511914 2.555117 L 2.559258 2.735391 M 2.559258 2.735391 L 2.417813 2.890039 M 2.417813 2.890039 L 2.401719 3.106133 M 2.401719 3.106133 L 2.292109 3.174102 M 2.292109 3.174102 L 1.914688 3.126328 M 1.914688 3.126328 L 1.742344 2.945078 M 1.742344 2.945078 L 1.887773 3.312109 M 1.887773 3.312109 L 2.229062 3.443945 M 2.229062 3.443945 L 2.458945 3.434492 M 2.458945 3.434492 L 2.717148 3.788398 M 2.717148 3.788398 L 2.420391 4.129727 M 2.420391 4.129727 L 2.702305 4.29625 M 2.702305 4.29625 L 2.716211 4.157891 M 2.716211 4.157891 L 2.964805 3.933281 M 2.964805 3.933281 L 2.914102 3.609688 M 2.914102 3.609688 L 2.787109 3.399883 M 2.787109 3.399883 L 3.083555 3.337227 M 3.083555 3.337227 L 3.238516 3.752109 M 3.238516 3.752109 L 3.637227 3.703945 M 3.637227 3.703945 L 3.743672 3.533359 M 3.743672 3.533359 L 3.531836 3.392852 M 3.531836 3.392852 L 3.4525 3.481758 M 3.4525 3.481758 L 3.34668 3.480234 M 3.34668 3.480234 L 3.305352 3.214219 M 3.305352 3.214219 L 3.363828 3.129336 M 3.363828 3.129336 L 3.708242 3.285273 " transform="matrix(100,0,0,100,0,0)"/>
<path style="fill:none;stroke-width:0.03;stroke-linecap:butt;stroke-linejoin:miter;stroke:rgb(10%,10%,10%);stroke-opacity:1;stroke-miterlimit:10;" d="M 3.708242 3.285273 L 4 3.080352 " transform="matrix(100,0,0,100,0,0)"/>
<path style="fill:none;stroke-width:0.03;stroke-linecap:butt;stroke-linejoin:miter;stroke:rgb(10%,10%,10%);stroke-opacity:1;stroke-miterlimit:10;" d="M 0.970391 3.915859 L 1.064414 3.982617 M 1.064414 3.982617 L 1.474648 3.893242 M 1.474648 3.893242 L 1.603594 3.468398 M 1.603594 3.468398 L 1.695547 3.435352 M 1.695547 3.435352 L 2.017773 3.55582 M 2.017773 3.55582 L 2.096367 3.936289 M 2.096367 3.936289 L 2.211211 3.941445 M 2.211211 3.941445 L 2.391914 3.772578 M 2.391914 3.772578 L 2.338359 3.672734 M 2.338359 3.672734 L 2.236602 3.672305 M 2.236602 3.672305 L 2.210938 3.42582 M 2.210938 3.42582 L 1.876055 3.29875 M 1.876055 3.29875 L 1.738516 2.924766 M 1.738516 2.924766 L 1.914883 3.122344 M 1.914883 3.122344 L 2.297969 3.1675 M 2.297969 3.1675 L 2.39582 3.110234 M 2.39582 3.110234 L 2.422734 2.87207 M 2.422734 2.87207 L 2.56 2.728906 M 2.56 2.728906 L 2.511563 2.555156 M 2.511563 2.555156 L 2.238945 2.631914 M 2.238945 2.631914 L 2.169336 2.889766 M 2.169336 2.889766 L 1.989531 2.840586 M 1.989531 2.840586 L 1.926328 2.640781 M 1.926328 2.640781 L 1.747227 2.518828 M 1.747227 2.518828 L 1.743164 2.389883 M 1.743164 2.389883 L 1.973242 2.086914 M 1.973242 2.086914 L 2.216367 2.028281 M 2.216367 2.028281 L 1.82582 1.970703 M 1.82582 1.970703 L 1.540977 2.200391 M 1.540977 2.200391 L 1.434258 2.40418 M 1.434258 2.40418 L 0.998672 2.450859 M 0.998672 2.450859 L 0.851445 2.023203 M 0.851445 2.023203 L 0.566289 2.184063 M 0.566289 2.184063 L 0.679141 2.265273 M 0.679141 2.265273 L 0.749336 2.592852 M 0.749336 2.592852 L 1.054961 2.710742 M 1.054961 2.710742 L 1.300156 2.705703 M 1.300156 2.705703 L 1.206172 2.993711 M 1.206172 2.993711 L 0.769414 2.920508 M 0.769414 2.920508 L 0.611719 3.289883 M 0.611719 3.289883 L 0.70625 3.467383 M 0.70625 3.467383 L 0.933867 3.354141 M 0.933867 3.354141 L 0.896523 3.240977 M 0.896523 3.240977 L 0.950781 3.150117 M 0.950781 3.150117 L 1.201797 3.247344 M 1.201797 3.247344 L 1.246055 3.34043 M 1.246055 3.34043 L 0.938828 3.560703 " transform="matrix(100,0,0,100,0,0)"/>
<path style="fill:none;stroke-width:0.03;stroke-linecap:butt;stroke-linejoin:miter;stroke:rgb(10%,10%,10%);stroke-opacity:1;stroke-miterlimit:10;" d="M 0.938828 3.560703 L 0.970391 3.915859 " transform="matrix(100,0,0,100,0,0)"/>
</g>
</svg>
